solid AutoCAD solid
facet normal -0.0 -0.0 1.0
outer loop
vertex 7.70151853561 199.732269287 100.0
vertex 12.6523084641 185.725189209 100.0
vertex 10.0000009537 200.0 100.0
endloop
endfacet
facet normal -0.0 0.0 1.0
outer loop
vertex 10.0000009537 200.0 100.0
vertex 12.6523084641 185.725189209 100.0
vertex 14.2504920959 187.512008667 100.0
endloop
endfacet
facet normal -0.0 0.0 1.0
outer loop
vertex 10.0000009537 200.0 100.0
vertex 14.2504920959 187.512008667 100.0
vertex 16.2280139923 188.867126465 100.0
endloop
endfacet
facet normal 0.0 0.0 1.0
outer loop
vertex 7.70151853561 199.732269287 100.0
vertex 5.52611303329 198.943389893 100.0
vertex 12.6523084641 185.725189209 100.0
endloop
endfacet
facet normal 0.0 0.0 1.0
outer loop
vertex 12.6523084641 185.725189209 100.0
vertex 5.52611303329 198.943389893 100.0
vertex 11.5253105164 183.609344482 100.0
endloop
endfacet
facet normal 0.0 0.0 1.0
outer loop
vertex 11.5253105164 183.609344482 100.0
vertex 5.52611303329 198.943389893 100.0
vertex 3.59027099609 197.675628662 100.0
endloop
endfacet
facet normal 0.0 0.0 1.0
outer loop
vertex 11.5253105164 183.609344482 100.0
vertex 3.59027099609 197.675628662 100.0
vertex 1.99765098095 195.996871948 100.0
endloop
endfacet
facet normal 0.0 0.0 1.0
outer loop
vertex 1.99765098095 195.996871948 100.0
vertex 0.83353304863 193.99697876 100.0
vertex 11.5253105164 183.609344482 100.0
endloop
endfacet
facet normal 0.0 0.0 1.0
outer loop
vertex 11.5253105164 183.609344482 100.0
vertex 0.83353304863 193.99697876 100.0
vertex 0.16025236249 191.783065796 100.0
endloop
endfacet
facet normal 0.0 0.0 1.0
outer loop
vertex 11.5253105164 183.609344482 100.0
vertex 0.16025236249 191.783065796 100.0
vertex 0.0138610200956 189.473678589 100.0
endloop
endfacet
facet normal 0.0 -0.0 1.0
outer loop
vertex 3.1372115612 163.275939941 100.0
vertex 10.9131422043 178.888885498 100.0
vertex 0.0138610200956 189.473678589 100.0
endloop
endfacet
facet normal -0.0 0.0 1.0
outer loop
vertex 0.0138610200956 189.473678589 100.0
vertex 10.9131422043 178.888885498 100.0
vertex 10.9342660904 181.286071777 100.0
endloop
endfacet
facet normal -0.0 0.0 1.0
outer loop
vertex 0.0138610200956 189.473678589 100.0
vertex 10.9342660904 181.286071777 100.0
vertex 11.5253105164 183.609344482 100.0
endloop
endfacet
facet normal 0.0 0.0 1.0
outer loop
vertex 10.9131422043 178.888885498 100.0
vertex 3.1372115612 163.275939941 100.0
vertex 15.365436554 154.095184326 100.0
endloop
endfacet
facet normal 0.0 0.0 1.0
outer loop
vertex 15.365436554 154.095184326 100.0
vertex 3.1372115612 163.275939941 100.0
vertex 9.68177223206 137.717269897 100.0
endloop
endfacet
facet normal 0.0 0.0 1.0
outer loop
vertex 15.365436554 154.095184326 100.0
vertex 9.68177223206 137.717269897 100.0
vertex 23.0585308075 130.108383179 100.0
endloop
endfacet
facet normal 0.0 0.0 1.0
outer loop
vertex 23.0585308075 130.108383179 100.0
vertex 9.68177223206 137.717269897 100.0
vertex 19.5336532593 113.242431641 100.0
endloop
endfacet
facet normal 0.0 0.0 1.0
outer loop
vertex 23.0585308075 130.108383179 100.0
vertex 19.5336532593 113.242431641 100.0
vertex 33.8572006226 107.350097656 100.0
endloop
endfacet
facet normal 0.0 0.0 1.0
outer loop
vertex 33.8572006226 107.350097656 100.0
vertex 19.5336532593 113.242431641 100.0
vertex 32.5214157104 90.27734375 100.0
endloop
endfacet
facet normal 0.0 0.0 1.0
outer loop
vertex 33.8572006226 107.350097656 100.0
vertex 32.5214157104 90.27734375 100.0
vertex 47.5716247559 86.2203826904 100.0
endloop
endfacet
facet normal 0.0 0.0 1.0
outer loop
vertex 47.5716247559 86.2203826904 100.0
vertex 32.5214157104 90.27734375 100.0
vertex 48.4190444946 69.2216415405 100.0
endloop
endfacet
facet normal 0.0 0.0 1.0
outer loop
vertex 47.5716247559 86.2203826904 100.0
vertex 48.4190444946 69.2216415405 100.0
vertex 63.9607467651 67.0906295776 100.0
endloop
endfacet
facet normal 0.0 0.0 1.0
outer loop
vertex 63.9607467651 67.0906295776 100.0
vertex 48.4190444946 69.2216415405 100.0
vertex 66.9498977661 50.441734314 100.0
endloop
endfacet
facet normal 0.0 0.0 1.0
outer loop
vertex 63.9607467651 67.0906295776 100.0
vertex 66.9498977661 50.441734314 100.0
vertex 82.7364807129 50.2971038818 100.0
endloop
endfacet
facet normal 0.0 0.0 1.0
outer loop
vertex 82.7364807129 50.2971038818 100.0
vertex 66.9498977661 50.441734314 100.0
vertex 87.7914886475 34.2644348145 100.0
endloop
endfacet
facet normal -0.0 0.0 1.0
outer loop
vertex 82.7364807129 50.2971038818 100.0
vertex 87.7914886475 34.2644348145 100.0
vertex 103.568786621 36.1349945068 100.0
endloop
endfacet
facet normal 0.0 0.0 1.0
outer loop
vertex 103.568786621 36.1349945068 100.0
vertex 87.7914886475 34.2644348145 100.0
vertex 110.58114624 20.9712486267 100.0
endloop
endfacet
facet normal -0.0 0.0 1.0
outer loop
vertex 103.568786621 36.1349945068 100.0
vertex 110.58114624 20.9712486267 100.0
vertex 126.091499329 24.8532333374 100.0
endloop
endfacet
facet normal 0.0 0.0 1.0
outer loop
vertex 126.091499329 24.8532333374 100.0
vertex 110.58114624 20.9712486267 100.0
vertex 134.922271729 10.793510437 100.0
endloop
endfacet
facet normal -0.0 0.0 1.0
outer loop
vertex 126.091499329 24.8532333374 100.0
vertex 134.922271729 10.793510437 100.0
vertex 149.908706665 16.6501293182 100.0
endloop
endfacet
facet normal 0.0 0.0 1.0
outer loop
vertex 149.908706665 16.6501293182 100.0
vertex 134.922271729 10.793510437 100.0
vertex 160.391311646 3.90833044052 100.0
endloop
endfacet
facet normal -0.0 0.0 1.0
outer loop
vertex 149.908706665 16.6501293182 100.0
vertex 160.391311646 3.90833044052 100.0
vertex 174.601776123 11.6698713303 100.0
endloop
endfacet
facet normal 0.0 0.0 1.0
outer loop
vertex 174.601776123 11.6698713303 100.0
vertex 160.391311646 3.90833044052 100.0
vertex 186.545028687 0.435523420572 100.0
endloop
endfacet
facet normal -0.0 0.0 1.0
outer loop
vertex 174.601776123 11.6698713303 100.0
vertex 186.545028687 0.435523420572 100.0
vertex 199.736663818 10.0000009537 100.0
endloop
endfacet
facet normal -0.0 0.0 1.0
outer loop
vertex 199.736663818 10.0000009537 100.0
vertex 186.545028687 0.435523420572 100.0
vertex 212.92829895 0.435523420572 100.0
endloop
endfacet
facet normal -0.0 0.0 1.0
outer loop
vertex 199.736663818 10.0000009537 100.0
vertex 212.92829895 0.435523420572 100.0
vertex 224.871536255 11.6698713303 100.0
endloop
endfacet
facet normal -0.0 0.0 1.0
outer loop
vertex 224.871536255 11.6698713303 100.0
vertex 212.92829895 0.435523420572 100.0
vertex 239.082015991 3.90833044052 100.0
endloop
endfacet
facet normal -0.0 0.0 1.0
outer loop
vertex 224.871536255 11.6698713303 100.0
vertex 239.082015991 3.90833044052 100.0
vertex 249.564605713 16.6501293182 100.0
endloop
endfacet
facet normal -0.0 0.0 1.0
outer loop
vertex 249.564605713 16.6501293182 100.0
vertex 239.082015991 3.90833044052 100.0
vertex 264.551055908 10.793510437 100.0
endloop
endfacet
facet normal -0.0 0.0 1.0
outer loop
vertex 249.564605713 16.6501293182 100.0
vertex 264.551055908 10.793510437 100.0
vertex 273.381835938 24.8532333374 100.0
endloop
endfacet
facet normal -0.0 0.0 1.0
outer loop
vertex 273.381835938 24.8532333374 100.0
vertex 264.551055908 10.793510437 100.0
vertex 288.892181396 20.9712486267 100.0
endloop
endfacet
facet normal -0.0 0.0 1.0
outer loop
vertex 273.381835938 24.8532333374 100.0
vertex 288.892181396 20.9712486267 100.0
vertex 295.904541016 36.1349945068 100.0
endloop
endfacet
facet normal -0.0 0.0 1.0
outer loop
vertex 295.904541016 36.1349945068 100.0
vertex 288.892181396 20.9712486267 100.0
vertex 311.68182373 34.2644348145 100.0
endloop
endfacet
facet normal -0.0 0.0 1.0
outer loop
vertex 295.904541016 36.1349945068 100.0
vertex 311.68182373 34.2644348145 100.0
vertex 316.736846924 50.2971038818 100.0
endloop
endfacet
facet normal -0.0 0.0 1.0
outer loop
vertex 316.736846924 50.2971038818 100.0
vertex 311.68182373 34.2644348145 100.0
vertex 332.5234375 50.441734314 100.0
endloop
endfacet
facet normal 0.0 0.0 1.0
outer loop
vertex 316.736846924 50.2971038818 100.0
vertex 332.5234375 50.441734314 100.0
vertex 335.512573242 67.0906295776 100.0
endloop
endfacet
facet normal -0.0 0.0 1.0
outer loop
vertex 335.512573242 67.0906295776 100.0
vertex 332.5234375 50.441734314 100.0
vertex 351.054260254 69.2216415405 100.0
endloop
endfacet
facet normal 0.0 0.0 1.0
outer loop
vertex 335.512573242 67.0906295776 100.0
vertex 351.054260254 69.2216415405 100.0
vertex 351.901702881 86.2203826904 100.0
endloop
endfacet
facet normal -0.0 0.0 1.0
outer loop
vertex 351.901702881 86.2203826904 100.0
vertex 351.054260254 69.2216415405 100.0
vertex 366.951904297 90.27734375 100.0
endloop
endfacet
facet normal 0.0 -0.0 1.0
outer loop
vertex 351.901702881 86.2203826904 100.0
vertex 366.951904297 90.27734375 100.0
vertex 365.616119385 107.350097656 100.0
endloop
endfacet
facet normal -0.0 0.0 1.0
outer loop
vertex 365.616119385 107.350097656 100.0
vertex 366.951904297 90.27734375 100.0
vertex 379.939666748 113.242431641 100.0
endloop
endfacet
facet normal 0.0 -0.0 1.0
outer loop
vertex 365.616119385 107.350097656 100.0
vertex 379.939666748 113.242431641 100.0
vertex 376.414794922 130.108383179 100.0
endloop
endfacet
facet normal -0.0 0.0 1.0
outer loop
vertex 376.414794922 130.108383179 100.0
vertex 379.939666748 113.242431641 100.0
vertex 389.791534424 137.717269897 100.0
endloop
endfacet
facet normal 0.0 -0.0 1.0
outer loop
vertex 376.414794922 130.108383179 100.0
vertex 389.791534424 137.717269897 100.0
vertex 384.107879639 154.095184326 100.0
endloop
endfacet
facet normal -0.0 0.0 1.0
outer loop
vertex 384.107879639 154.095184326 100.0
vertex 389.791534424 137.717269897 100.0
vertex 396.336120605 163.275939941 100.0
endloop
endfacet
facet normal 0.0 -0.0 1.0
outer loop
vertex 384.107879639 154.095184326 100.0
vertex 396.336120605 163.275939941 100.0
vertex 388.560180664 178.888885498 100.0
endloop
endfacet
facet normal -0.0 0.0 1.0
outer loop
vertex 388.560180664 178.888885498 100.0
vertex 396.336120605 163.275939941 100.0
vertex 399.459472656 189.473678589 100.0
endloop
endfacet
facet normal 0.0 -0.0 1.0
outer loop
vertex 388.560180664 178.888885498 100.0
vertex 399.459472656 189.473678589 100.0
vertex 388.5390625 181.286071777 100.0
endloop
endfacet
facet normal 0.0 -0.0 1.0
outer loop
vertex 388.5390625 181.286071777 100.0
vertex 399.459472656 189.473678589 100.0
vertex 387.947998047 183.609344482 100.0
endloop
endfacet
facet normal 0.0 -0.0 1.0
outer loop
vertex 387.947998047 183.609344482 100.0
vertex 399.459472656 189.473678589 100.0
vertex 397.47567749 195.996871948 100.0
endloop
endfacet
facet normal 0.0 -0.0 1.0
outer loop
vertex 387.947998047 183.609344482 100.0
vertex 397.47567749 195.996871948 100.0
vertex 395.883056641 197.675628662 100.0
endloop
endfacet
facet normal 0.0 0.0 1.0
outer loop
vertex 399.313079834 191.783065796 100.0
vertex 398.639801025 193.99697876 100.0
vertex 399.459472656 189.473678589 100.0
endloop
endfacet
facet normal 0.0 0.0 1.0
outer loop
vertex 399.459472656 189.473678589 100.0
vertex 398.639801025 193.99697876 100.0
vertex 397.47567749 195.996871948 100.0
endloop
endfacet
facet normal 0.0 0.0 1.0
outer loop
vertex 395.883056641 197.675628662 100.0
vertex 393.94720459 198.943389893 100.0
vertex 387.947998047 183.609344482 100.0
endloop
endfacet
facet normal 0.0 -0.0 1.0
outer loop
vertex 387.947998047 183.609344482 100.0
vertex 393.94720459 198.943389893 100.0
vertex 386.821014404 185.725189209 100.0
endloop
endfacet
facet normal 0.0 -0.0 1.0
outer loop
vertex 386.821014404 185.725189209 100.0
vertex 393.94720459 198.943389893 100.0
vertex 391.771789551 199.732269287 100.0
endloop
endfacet
facet normal 0.0 -0.0 1.0
outer loop
vertex 386.821014404 185.725189209 100.0
vertex 391.771789551 199.732269287 100.0
vertex 389.473327637 200.0 100.0
endloop
endfacet
facet normal -0.0 0.0 1.0
outer loop
vertex 10.0000009537 200.0 100.0
vertex 378.62210083 190.0 100.0
vertex 389.473327637 200.0 100.0
endloop
endfacet
facet normal 0.0 0.0 1.0
outer loop
vertex 389.473327637 200.0 100.0
vertex 378.62210083 190.0 100.0
vertex 381.002105713 189.712661743 100.0
endloop
endfacet
facet normal 0.0 0.0 1.0
outer loop
vertex 389.473327637 200.0 100.0
vertex 381.002105713 189.712661743 100.0
vertex 383.245300293 188.867126465 100.0
endloop
endfacet
facet normal -0.0 0.0 1.0
outer loop
vertex 383.245300293 188.867126465 100.0
vertex 385.222839355 187.512008667 100.0
vertex 389.473327637 200.0 100.0
endloop
endfacet
facet normal 0.0 0.0 1.0
outer loop
vertex 389.473327637 200.0 100.0
vertex 385.222839355 187.512008667 100.0
vertex 386.821014404 185.725189209 100.0
endloop
endfacet
facet normal 0.0 -0.0 1.0
outer loop
vertex 16.2280139923 188.867126465 100.0
vertex 18.4712295532 189.712661743 100.0
vertex 10.0000009537 200.0 100.0
endloop
endfacet
facet normal -0.0 0.0 1.0
outer loop
vertex 10.0000009537 200.0 100.0
vertex 18.4712295532 189.712661743 100.0
vertex 20.8512229919 190.0 100.0
endloop
endfacet
facet normal -0.0 0.0 1.0
outer loop
vertex 10.0000009537 200.0 100.0
vertex 20.8512229919 190.0 100.0
vertex 378.62210083 190.0 100.0
endloop
endfacet
facet normal 0.119863778353 -0.992790341377 0.0
outer loop
vertex 20.8512229919 190.0 10.0000009537
vertex 20.8512229919 190.0 100.0
vertex 18.4712295532 189.712661743 10.0000009537
endloop
endfacet
facet normal 0.119863778353 -0.992790341377 -3.75640682523e-17
outer loop
vertex 18.4712295532 189.712661743 10.0000009537
vertex 20.8512229919 190.0 100.0
vertex 18.4712295532 189.712661743 100.0
endloop
endfacet
facet normal 0.352702826262 -0.935735404491 -1.11382423814e-16
outer loop
vertex 18.4712295532 189.712661743 10.0000009537
vertex 18.4712295532 189.712661743 100.0
vertex 16.2280139923 188.867126465 100.0
endloop
endfacet
facet normal 0.352702826262 -0.935735404491 -1.11382423814e-16
outer loop
vertex 18.4712295532 189.712661743 10.0000009537
vertex 16.2280139923 188.867126465 100.0
vertex 16.2280139923 188.867126465 10.0000009537
endloop
endfacet
facet normal 0.565272331238 -0.824904382229 -1.78511174547e-16
outer loop
vertex 16.2280139923 188.867126465 10.0000009537
vertex 16.2280139923 188.867126465 100.0
vertex 14.2504920959 187.512008667 100.0
endloop
endfacet
facet normal 0.565272331238 -0.824904382229 2.60502124192e-16
outer loop
vertex 16.2280139923 188.867126465 10.0000009537
vertex 14.2504920959 187.512008667 100.0
vertex 14.2504920959 187.512008667 10.0000009537
endloop
endfacet
facet normal 0.745355963707 -0.666666686535 2.10531177241e-16
outer loop
vertex 14.2504920959 187.512008667 10.0000009537
vertex 14.2504920959 187.512008667 100.0
vertex 12.6523084641 185.725189209 100.0
endloop
endfacet
facet normal 0.745355963707 -0.666666686535 0.0
outer loop
vertex 14.2504920959 187.512008667 10.0000009537
vertex 12.6523084641 185.725189209 100.0
vertex 12.6523084641 185.725189209 10.0000009537
endloop
endfacet
facet normal 0.882604598999 -0.470116108656 0.0
outer loop
vertex 12.6523084641 185.725189209 10.0000009537
vertex 12.6523084641 185.725189209 100.0
vertex 11.5253105164 183.609344482 100.0
endloop
endfacet
facet normal 0.882604598999 -0.470116108656 1.48461145496e-16
outer loop
vertex 12.6523084641 185.725189209 10.0000009537
vertex 11.5253105164 183.609344482 100.0
vertex 11.5253105164 183.609344482 10.0000009537
endloop
endfacet
facet normal 0.969130516052 -0.246548295021 7.78591560151e-17
outer loop
vertex 11.5253105164 183.609344482 10.0000009537
vertex 11.5253105164 183.609344482 100.0
vertex 10.9342660904 181.286071777 100.0
endloop
endfacet
facet normal 0.969130516052 -0.246548295021 0.0
outer loop
vertex 11.5253105164 183.609344482 10.0000009537
vertex 10.9342660904 181.286071777 100.0
vertex 10.9342660904 181.286071777 10.0000009537
endloop
endfacet
facet normal 0.999961197376 -0.00881153903902 0.0
outer loop
vertex 10.9342660904 181.286071777 10.0000009537
vertex 10.9342660904 181.286071777 100.0
vertex 10.9131422043 178.888885498 100.0
endloop
endfacet
facet normal 0.999961197376 -0.00881153903902 0.0
outer loop
vertex 10.9342660904 181.286071777 10.0000009537
vertex 10.9131422043 178.888885498 100.0
vertex 10.9131422043 178.888885498 10.0000009537
endloop
endfacet
facet normal 0.984256386757 0.176746472716 -0.0
outer loop
vertex 10.9131422043 178.888885498 10.0000009537
vertex 10.9131422043 178.888885498 100.0
vertex 15.365436554 154.095184326 10.0000009537
endloop
endfacet
facet normal 0.984256386757 0.176746472716 -2.00583198792e-16
outer loop
vertex 15.365436554 154.095184326 10.0000009537
vertex 10.9131422043 178.888885498 100.0
vertex 15.365436554 154.095184326 100.0
endloop
endfacet
facet normal 0.952224433422 0.305399209261 -1.07821219371e-16
outer loop
vertex 15.365436554 154.095184326 10.0000009537
vertex 15.365436554 154.095184326 100.0
vertex 23.0585308075 130.108383179 100.0
endloop
endfacet
facet normal 0.952224433422 0.305399209261 9.64440845818e-17
outer loop
vertex 15.365436554 154.095184326 10.0000009537
vertex 23.0585308075 130.108383179 100.0
vertex 23.0585308075 130.108383179 10.0000009537
endloop
endfacet
facet normal 0.903454601765 0.428683787584 1.35376961386e-16
outer loop
vertex 23.0585308075 130.108383179 10.0000009537
vertex 23.0585308075 130.108383179 100.0
vertex 33.8572006226 107.350097656 100.0
endloop
endfacet
facet normal 0.903454601765 0.428683787584 -2.99862183534e-16
outer loop
vertex 23.0585308075 130.108383179 10.0000009537
vertex 33.8572006226 107.350097656 100.0
vertex 33.8572006226 107.350097656 10.0000009537
endloop
endfacet
facet normal 0.838804244995 0.544433116913 -1.85922898124e-16
outer loop
vertex 33.8572006226 107.350097656 10.0000009537
vertex 33.8572006226 107.350097656 100.0
vertex 47.5716247559 86.2203826904 100.0
endloop
endfacet
facet normal 0.838804244995 0.544433116913 1.64933884912e-16
outer loop
vertex 33.8572006226 107.350097656 10.0000009537
vertex 47.5716247559 86.2203826904 100.0
vertex 47.5716247559 86.2203826904 10.0000009537
endloop
endfacet
facet normal 0.759409725666 0.650612652302 2.73834290433e-16
outer loop
vertex 47.5716247559 86.2203826904 10.0000009537
vertex 47.5716247559 86.2203826904 100.0
vertex 63.9607467651 67.0906295776 100.0
endloop
endfacet
facet normal 0.759409725666 0.650612652302 -6.87155412286e-17
outer loop
vertex 47.5716247559 86.2203826904 10.0000009537
vertex 63.9607467651 67.0906295776 100.0
vertex 63.9607467651 67.0906295776 10.0000009537
endloop
endfacet
facet normal 0.666666686535 0.745355963707 4.9699671415e-17
outer loop
vertex 63.9607467651 67.0906295776 10.0000009537
vertex 63.9607467651 67.0906295776 100.0
vertex 82.7364807129 50.2971038818 100.0
endloop
endfacet
facet normal 0.666666686535 0.745355963707 2.48498357075e-17
outer loop
vertex 63.9607467651 67.0906295776 10.0000009537
vertex 82.7364807129 50.2971038818 100.0
vertex 82.7364807129 50.2971038818 10.0000009537
endloop
endfacet
facet normal 0.562205195427 0.826997756958 8.36206410351e-17
outer loop
vertex 82.7364807129 50.2971038818 10.0000009537
vertex 82.7364807129 50.2971038818 100.0
vertex 103.568786621 36.1349945068 100.0
endloop
endfacet
facet normal 0.562205195427 0.826997756958 -5.15065308307e-18
outer loop
vertex 82.7364807129 50.2971038818 10.0000009537
vertex 103.568786621 36.1349945068 100.0
vertex 103.568786621 36.1349945068 10.0000009537
endloop
endfacet
facet normal 0.447861522436 0.894102931023 7.02049824919e-17
outer loop
vertex 103.568786621 36.1349945068 10.0000009537
vertex 103.568786621 36.1349945068 100.0
vertex 126.091499329 24.8532333374 100.0
endloop
endfacet
facet normal 0.447861522436 0.894102931023 -4.9450466381e-16
outer loop
vertex 103.568786621 36.1349945068 10.0000009537
vertex 126.091499329 24.8532333374 100.0
vertex 126.091499329 24.8532333374 10.0000009537
endloop
endfacet
facet normal 0.325645536184 0.945491909981 -4.52840013107e-16
outer loop
vertex 126.091499329 24.8532333374 10.0000009537
vertex 126.091499329 24.8532333374 100.0
vertex 149.908706665 16.6501293182 100.0
endloop
endfacet
facet normal 0.325645536184 0.945491909981 0.0
outer loop
vertex 126.091499329 24.8532333374 10.0000009537
vertex 149.908706665 16.6501293182 100.0
vertex 149.908706665 16.6501293182 10.0000009537
endloop
endfacet
facet normal 0.197705477476 0.980261445045 -0.0
outer loop
vertex 149.908706665 16.6501293182 10.0000009537
vertex 149.908706665 16.6501293182 100.0
vertex 174.601776123 11.6698713303 100.0
endloop
endfacet
facet normal 0.197705477476 0.980261445045 -6.243475222e-17
outer loop
vertex 149.908706665 16.6501293182 10.0000009537
vertex 174.601776123 11.6698713303 100.0
vertex 174.601776123 11.6698713303 10.0000009537
endloop
endfacet
facet normal 0.0662902295589 0.997800409794 -2.09342406204e-17
outer loop
vertex 174.601776123 11.6698713303 10.0000009537
vertex 174.601776123 11.6698713303 100.0
vertex 199.736663818 10.0000009537 100.0
endloop
endfacet
facet normal 0.0662902295589 0.997800409794 -4.18684812408e-17
outer loop
vertex 174.601776123 11.6698713303 10.0000009537
vertex 199.736663818 10.0000009537 100.0
vertex 199.736663818 10.0000009537 10.0000009537
endloop
endfacet
facet normal -0.0662902295589 0.997800409794 4.18684812408e-17
outer loop
vertex 199.736663818 10.0000009537 10.0000009537
vertex 199.736663818 10.0000009537 100.0
vertex 224.871536255 11.6698713303 100.0
endloop
endfacet
facet normal -0.0662902295589 0.997800409794 0.0
outer loop
vertex 199.736663818 10.0000009537 10.0000009537
vertex 224.871536255 11.6698713303 100.0
vertex 224.871536255 11.6698713303 10.0000009537
endloop
endfacet
facet normal -0.197705477476 0.980261445045 0.0
outer loop
vertex 224.871536255 11.6698713303 10.0000009537
vertex 224.871536255 11.6698713303 100.0
vertex 249.564605713 16.6501293182 100.0
endloop
endfacet
facet normal -0.197705477476 0.980261445045 0.0
outer loop
vertex 224.871536255 11.6698713303 10.0000009537
vertex 249.564605713 16.6501293182 100.0
vertex 249.564605713 16.6501293182 10.0000009537
endloop
endfacet
facet normal -0.325645536184 0.945491909981 0.0
outer loop
vertex 249.564605713 16.6501293182 10.0000009537
vertex 249.564605713 16.6501293182 100.0
vertex 273.381835938 24.8532333374 100.0
endloop
endfacet
facet normal -0.325645536184 0.945491909981 0.0
outer loop
vertex 249.564605713 16.6501293182 10.0000009537
vertex 273.381835938 24.8532333374 100.0
vertex 273.381835938 24.8532333374 10.0000009537
endloop
endfacet
facet normal -0.447861522436 0.894102931023 0.0
outer loop
vertex 273.381835938 24.8532333374 10.0000009537
vertex 273.381835938 24.8532333374 100.0
vertex 295.904541016 36.1349945068 100.0
endloop
endfacet
facet normal -0.447861522436 0.894102931023 0.0
outer loop
vertex 273.381835938 24.8532333374 10.0000009537
vertex 295.904541016 36.1349945068 100.0
vertex 295.904541016 36.1349945068 10.0000009537
endloop
endfacet
facet normal -0.562205195427 0.826997756958 0.0
outer loop
vertex 295.904541016 36.1349945068 10.0000009537
vertex 295.904541016 36.1349945068 100.0
vertex 316.736846924 50.2971038818 100.0
endloop
endfacet
facet normal -0.562205195427 0.826997756958 0.0
outer loop
vertex 295.904541016 36.1349945068 10.0000009537
vertex 316.736846924 50.2971038818 100.0
vertex 316.736846924 50.2971038818 10.0000009537
endloop
endfacet
facet normal -0.666666686535 0.745355963707 0.0
outer loop
vertex 316.736846924 50.2971038818 10.0000009537
vertex 316.736846924 50.2971038818 100.0
vertex 335.512573242 67.0906295776 100.0
endloop
endfacet
facet normal -0.666666686535 0.745355963707 0.0
outer loop
vertex 316.736846924 50.2971038818 10.0000009537
vertex 335.512573242 67.0906295776 100.0
vertex 335.512573242 67.0906295776 10.0000009537
endloop
endfacet
facet normal -0.759409725666 0.650612652302 0.0
outer loop
vertex 335.512573242 67.0906295776 10.0000009537
vertex 335.512573242 67.0906295776 100.0
vertex 351.901702881 86.2203826904 100.0
endloop
endfacet
facet normal -0.759409725666 0.650612652302 -2.40161766164e-16
outer loop
vertex 335.512573242 67.0906295776 10.0000009537
vertex 351.901702881 86.2203826904 100.0
vertex 351.901702881 86.2203826904 10.0000009537
endloop
endfacet
facet normal -0.838804244995 0.544433116913 -4.57810931837e-16
outer loop
vertex 351.901702881 86.2203826904 10.0000009537
vertex 351.901702881 86.2203826904 100.0
vertex 365.616119385 107.350097656 100.0
endloop
endfacet
facet normal -0.838804244995 0.544433116913 0.0
outer loop
vertex 351.901702881 86.2203826904 10.0000009537
vertex 365.616119385 107.350097656 100.0
vertex 365.616119385 107.350097656 10.0000009537
endloop
endfacet
facet normal -0.903454601765 0.428683787584 0.0
outer loop
vertex 365.616119385 107.350097656 10.0000009537
vertex 365.616119385 107.350097656 100.0
vertex 376.414794922 130.108383179 100.0
endloop
endfacet
facet normal -0.903454601765 0.428683787584 0.0
outer loop
vertex 365.616119385 107.350097656 10.0000009537
vertex 376.414794922 130.108383179 100.0
vertex 376.414794922 130.108383179 10.0000009537
endloop
endfacet
facet normal -0.952224433422 0.305399209261 0.0
outer loop
vertex 376.414794922 130.108383179 10.0000009537
vertex 376.414794922 130.108383179 100.0
vertex 384.107879639 154.095184326 100.0
endloop
endfacet
facet normal -0.952224433422 0.305399209261 1.92888169164e-16
outer loop
vertex 376.414794922 130.108383179 10.0000009537
vertex 384.107879639 154.095184326 100.0
vertex 384.107879639 154.095184326 10.0000009537
endloop
endfacet
facet normal -0.984256386757 0.176746472716 1.11631927957e-16
outer loop
vertex 384.107879639 154.095184326 10.0000009537
vertex 384.107879639 154.095184326 100.0
vertex 388.560180664 178.888885498 100.0
endloop
endfacet
facet normal -0.984256386757 0.176746472716 0.0
outer loop
vertex 384.107879639 154.095184326 10.0000009537
vertex 388.560180664 178.888885498 100.0
vertex 388.560180664 178.888885498 10.0000009537
endloop
endfacet
facet normal -0.997996926308 0.063262693584 0.0
outer loop
vertex 0.0138610200956 189.473678589 9.99999997475e-07
vertex 0.0138610200956 189.473678589 100.0
vertex 0.16025236249 191.783065796 9.99999997475e-07
endloop
endfacet
facet normal -0.997996926308 0.063262693584 2.65798356513e-16
outer loop
vertex 0.16025236249 191.783065796 9.99999997475e-07
vertex 0.0138610200956 189.473678589 100.0
vertex 0.16025236249 191.783065796 100.0
endloop
endfacet
facet normal -0.956736207008 0.290956765413 1.89225903102e-16
outer loop
vertex 0.16025236249 191.783065796 9.99999997475e-07
vertex 0.16025236249 191.783065796 100.0
vertex 0.83353304863 193.99697876 100.0
endloop
endfacet
facet normal -0.956736207008 0.290956765413 -8.26948869633e-17
outer loop
vertex 0.16025236249 191.783065796 9.99999997475e-07
vertex 0.83353304863 193.99697876 100.0
vertex 0.83353304863 193.99697876 9.99999997475e-07
endloop
endfacet
facet normal -0.864245116711 0.503070950508 -1.42981371723e-16
outer loop
vertex 0.83353304863 193.99697876 9.99999997475e-07
vertex 0.83353304863 193.99697876 100.0
vertex 1.99765098095 195.996871948 100.0
endloop
endfacet
facet normal -0.864245116711 0.503070950508 -1.42981371723e-16
outer loop
vertex 0.83353304863 193.99697876 9.99999997475e-07
vertex 1.99765098095 195.996871948 100.0
vertex 1.99765098095 195.996871948 9.99999997475e-07
endloop
endfacet
facet normal -0.725476264954 0.688247203827 -1.95611618317e-16
outer loop
vertex 1.99765098095 195.996871948 9.99999997475e-07
vertex 1.99765098095 195.996871948 100.0
vertex 3.59027099609 197.675628662 100.0
endloop
endfacet
facet normal -0.725476264954 0.688247203827 0.0
outer loop
vertex 1.99765098095 195.996871948 9.99999997475e-07
vertex 3.59027099609 197.675628662 100.0
vertex 3.59027099609 197.675628662 9.99999997475e-07
endloop
endfacet
facet normal -0.547860264778 0.836569845676 0.0
outer loop
vertex 3.59027099609 197.675628662 9.99999997475e-07
vertex 3.59027099609 197.675628662 100.0
vertex 5.52611303329 198.943389893 100.0
endloop
endfacet
facet normal -0.547860264778 0.836569845676 0.0
outer loop
vertex 3.59027099609 197.675628662 9.99999997475e-07
vertex 5.52611303329 198.943389893 100.0
vertex 5.52611303329 198.943389893 9.99999997475e-07
endloop
endfacet
facet normal -0.340908020735 0.94009667635 0.0
outer loop
vertex 5.52611303329 198.943389893 9.99999997475e-07
vertex 5.52611303329 198.943389893 100.0
vertex 7.70151853561 199.732269287 100.0
endloop
endfacet
facet normal -0.340908020735 0.94009667635 -9.68918936956e-17
outer loop
vertex 5.52611303329 198.943389893 9.99999997475e-07
vertex 7.70151853561 199.732269287 100.0
vertex 7.70151853561 199.732269287 9.99999997475e-07
endloop
endfacet
facet normal -0.115701161325 0.99328404665 -3.28842476147e-17
outer loop
vertex 7.70151853561 199.732269287 9.99999997475e-07
vertex 7.70151853561 199.732269287 100.0
vertex 10.0000009537 200.0 100.0
endloop
endfacet
facet normal -0.115701161325 0.99328404665 -6.57684952294e-17
outer loop
vertex 7.70151853561 199.732269287 9.99999997475e-07
vertex 10.0000009537 200.0 100.0
vertex 10.0000009537 200.0 9.99999997475e-07
endloop
endfacet
facet normal -0.0 1.0 0.0
outer loop
vertex 10.0000009537 200.0 100.0
vertex 389.473327637 200.0 100.0
vertex 10.0000009537 200.0 9.99999997475e-07
endloop
endfacet
facet normal -0.0 1.0 0.0
outer loop
vertex 10.0000009537 200.0 9.99999997475e-07
vertex 389.473327637 200.0 100.0
vertex 389.473327637 200.0 9.99999997475e-07
endloop
endfacet
facet normal -0.999961197376 -0.00881153903902 0.0
outer loop
vertex 388.560180664 178.888885498 10.0000009537
vertex 388.560180664 178.888885498 100.0
vertex 388.5390625 181.286071777 10.0000009537
endloop
endfacet
facet normal -0.999961197376 -0.00881153903902 0.0
outer loop
vertex 388.5390625 181.286071777 10.0000009537
vertex 388.560180664 178.888885498 100.0
vertex 388.5390625 181.286071777 100.0
endloop
endfacet
facet normal -0.969130516052 -0.246548295021 0.0
outer loop
vertex 388.5390625 181.286071777 10.0000009537
vertex 388.5390625 181.286071777 100.0
vertex 387.947998047 183.609344482 100.0
endloop
endfacet
facet normal -0.969130516052 -0.246548295021 7.78591560151e-17
outer loop
vertex 388.5390625 181.286071777 10.0000009537
vertex 387.947998047 183.609344482 100.0
vertex 387.947998047 183.609344482 10.0000009537
endloop
endfacet
facet normal -0.882604598999 -0.470116108656 1.48461145496e-16
outer loop
vertex 387.947998047 183.609344482 10.0000009537
vertex 387.947998047 183.609344482 100.0
vertex 386.821014404 185.725189209 100.0
endloop
endfacet
facet normal -0.882604598999 -0.470116108656 -0.0
outer loop
vertex 387.947998047 183.609344482 10.0000009537
vertex 386.821014404 185.725189209 100.0
vertex 386.821014404 185.725189209 10.0000009537
endloop
endfacet
facet normal -0.745355963707 -0.666666686535 0.0
outer loop
vertex 386.821014404 185.725189209 10.0000009537
vertex 386.821014404 185.725189209 100.0
vertex 385.222839355 187.512008667 100.0
endloop
endfacet
facet normal -0.745355963707 -0.666666686535 -0.0
outer loop
vertex 386.821014404 185.725189209 10.0000009537
vertex 385.222839355 187.512008667 100.0
vertex 385.222839355 187.512008667 10.0000009537
endloop
endfacet
facet normal -0.565272331238 -0.824904382229 0.0
outer loop
vertex 385.222839355 187.512008667 10.0000009537
vertex 385.222839355 187.512008667 100.0
vertex 383.245300293 188.867126465 100.0
endloop
endfacet
facet normal -0.565272331238 -0.824904382229 -0.0
outer loop
vertex 385.222839355 187.512008667 10.0000009537
vertex 383.245300293 188.867126465 100.0
vertex 383.245300293 188.867126465 10.0000009537
endloop
endfacet
facet normal -0.352702826262 -0.935735404491 0.0
outer loop
vertex 383.245300293 188.867126465 10.0000009537
vertex 383.245300293 188.867126465 100.0
vertex 381.002105713 189.712661743 100.0
endloop
endfacet
facet normal -0.352702826262 -0.935735404491 -0.0
outer loop
vertex 383.245300293 188.867126465 10.0000009537
vertex 381.002105713 189.712661743 100.0
vertex 381.002105713 189.712661743 10.0000009537
endloop
endfacet
facet normal -0.119863778353 -0.992790341377 0.0
outer loop
vertex 381.002105713 189.712661743 10.0000009537
vertex 381.002105713 189.712661743 100.0
vertex 378.62210083 190.0 100.0
endloop
endfacet
facet normal -0.119863778353 -0.992790341377 -0.0
outer loop
vertex 381.002105713 189.712661743 10.0000009537
vertex 378.62210083 190.0 100.0
vertex 378.62210083 190.0 10.0000009537
endloop
endfacet
facet normal -0.0 -1.0 -0.0
outer loop
vertex 378.62210083 190.0 100.0
vertex 20.8512229919 190.0 100.0
vertex 378.62210083 190.0 10.0000009537
endloop
endfacet
facet normal -0.0 -1.0 -0.0
outer loop
vertex 378.62210083 190.0 10.0000009537
vertex 20.8512229919 190.0 100.0
vertex 20.8512229919 190.0 10.0000009537
endloop
endfacet
facet normal -0.0 -0.0 1.0
outer loop
vertex 20.8512229919 190.0 10.0000009537
vertex 384.107879639 154.095184326 10.0000009537
vertex 378.62210083 190.0 10.0000009537
endloop
endfacet
facet normal -0.0 0.0 1.0
outer loop
vertex 378.62210083 190.0 10.0000009537
vertex 384.107879639 154.095184326 10.0000009537
vertex 388.560180664 178.888885498 10.0000009537
endloop
endfacet
facet normal -0.0 -0.0 1.0
outer loop
vertex 378.62210083 190.0 10.0000009537
vertex 388.560180664 178.888885498 10.0000009537
vertex 388.5390625 181.286071777 10.0000009537
endloop
endfacet
facet normal -0.0 0.0 1.0
outer loop
vertex 18.4712295532 189.712661743 10.0000009537
vertex 16.2280139923 188.867126465 10.0000009537
vertex 20.8512229919 190.0 10.0000009537
endloop
endfacet
facet normal 0.0 0.0 1.0
outer loop
vertex 20.8512229919 190.0 10.0000009537
vertex 16.2280139923 188.867126465 10.0000009537
vertex 14.2504920959 187.512008667 10.0000009537
endloop
endfacet
facet normal 0.0 0.0 1.0
outer loop
vertex 20.8512229919 190.0 10.0000009537
vertex 14.2504920959 187.512008667 10.0000009537
vertex 12.6523084641 185.725189209 10.0000009537
endloop
endfacet
facet normal -0.0 0.0 1.0
outer loop
vertex 12.6523084641 185.725189209 10.0000009537
vertex 11.5253105164 183.609344482 10.0000009537
vertex 20.8512229919 190.0 10.0000009537
endloop
endfacet
facet normal 0.0 0.0 1.0
outer loop
vertex 20.8512229919 190.0 10.0000009537
vertex 11.5253105164 183.609344482 10.0000009537
vertex 10.9342660904 181.286071777 10.0000009537
endloop
endfacet
facet normal 0.0 0.0 1.0
outer loop
vertex 20.8512229919 190.0 10.0000009537
vertex 10.9342660904 181.286071777 10.0000009537
vertex 10.9131422043 178.888885498 10.0000009537
endloop
endfacet
facet normal -0.0 0.0 1.0
outer loop
vertex 10.9131422043 178.888885498 10.0000009537
vertex 15.365436554 154.095184326 10.0000009537
vertex 20.8512229919 190.0 10.0000009537
endloop
endfacet
facet normal 0.0 0.0 1.0
outer loop
vertex 20.8512229919 190.0 10.0000009537
vertex 15.365436554 154.095184326 10.0000009537
vertex 384.107879639 154.095184326 10.0000009537
endloop
endfacet
facet normal 0.0 0.0 1.0
outer loop
vertex 384.107879639 154.095184326 10.0000009537
vertex 15.365436554 154.095184326 10.0000009537
vertex 376.414794922 130.108383179 10.0000009537
endloop
endfacet
facet normal 0.0 0.0 1.0
outer loop
vertex 376.414794922 130.108383179 10.0000009537
vertex 15.365436554 154.095184326 10.0000009537
vertex 23.0585308075 130.108383179 10.0000009537
endloop
endfacet
facet normal 0.0 0.0 1.0
outer loop
vertex 376.414794922 130.108383179 10.0000009537
vertex 23.0585308075 130.108383179 10.0000009537
vertex 365.616119385 107.350097656 10.0000009537
endloop
endfacet
facet normal 0.0 0.0 1.0
outer loop
vertex 365.616119385 107.350097656 10.0000009537
vertex 23.0585308075 130.108383179 10.0000009537
vertex 33.8572006226 107.350097656 10.0000009537
endloop
endfacet
facet normal 0.0 0.0 1.0
outer loop
vertex 365.616119385 107.350097656 10.0000009537
vertex 33.8572006226 107.350097656 10.0000009537
vertex 351.901702881 86.2203826904 10.0000009537
endloop
endfacet
facet normal 0.0 0.0 1.0
outer loop
vertex 351.901702881 86.2203826904 10.0000009537
vertex 33.8572006226 107.350097656 10.0000009537
vertex 47.5716247559 86.2203826904 10.0000009537
endloop
endfacet
facet normal 0.0 0.0 1.0
outer loop
vertex 351.901702881 86.2203826904 10.0000009537
vertex 47.5716247559 86.2203826904 10.0000009537
vertex 335.512573242 67.0906295776 10.0000009537
endloop
endfacet
facet normal 0.0 0.0 1.0
outer loop
vertex 335.512573242 67.0906295776 10.0000009537
vertex 47.5716247559 86.2203826904 10.0000009537
vertex 63.9607467651 67.0906295776 10.0000009537
endloop
endfacet
facet normal 0.0 0.0 1.0
outer loop
vertex 335.512573242 67.0906295776 10.0000009537
vertex 63.9607467651 67.0906295776 10.0000009537
vertex 316.736846924 50.2971038818 10.0000009537
endloop
endfacet
facet normal 0.0 0.0 1.0
outer loop
vertex 316.736846924 50.2971038818 10.0000009537
vertex 63.9607467651 67.0906295776 10.0000009537
vertex 82.7364807129 50.2971038818 10.0000009537
endloop
endfacet
facet normal 0.0 0.0 1.0
outer loop
vertex 316.736846924 50.2971038818 10.0000009537
vertex 82.7364807129 50.2971038818 10.0000009537
vertex 295.904541016 36.1349945068 10.0000009537
endloop
endfacet
facet normal 0.0 0.0 1.0
outer loop
vertex 295.904541016 36.1349945068 10.0000009537
vertex 82.7364807129 50.2971038818 10.0000009537
vertex 103.568786621 36.1349945068 10.0000009537
endloop
endfacet
facet normal 0.0 0.0 1.0
outer loop
vertex 295.904541016 36.1349945068 10.0000009537
vertex 103.568786621 36.1349945068 10.0000009537
vertex 273.381835938 24.8532333374 10.0000009537
endloop
endfacet
facet normal 0.0 0.0 1.0
outer loop
vertex 273.381835938 24.8532333374 10.0000009537
vertex 103.568786621 36.1349945068 10.0000009537
vertex 126.091499329 24.8532333374 10.0000009537
endloop
endfacet
facet normal 0.0 0.0 1.0
outer loop
vertex 273.381835938 24.8532333374 10.0000009537
vertex 126.091499329 24.8532333374 10.0000009537
vertex 249.564605713 16.6501293182 10.0000009537
endloop
endfacet
facet normal 0.0 0.0 1.0
outer loop
vertex 249.564605713 16.6501293182 10.0000009537
vertex 126.091499329 24.8532333374 10.0000009537
vertex 149.908706665 16.6501293182 10.0000009537
endloop
endfacet
facet normal 0.0 0.0 1.0
outer loop
vertex 249.564605713 16.6501293182 10.0000009537
vertex 149.908706665 16.6501293182 10.0000009537
vertex 224.871536255 11.6698713303 10.0000009537
endloop
endfacet
facet normal 0.0 0.0 1.0
outer loop
vertex 224.871536255 11.6698713303 10.0000009537
vertex 149.908706665 16.6501293182 10.0000009537
vertex 174.601776123 11.6698713303 10.0000009537
endloop
endfacet
facet normal 0.0 0.0 1.0
outer loop
vertex 224.871536255 11.6698713303 10.0000009537
vertex 174.601776123 11.6698713303 10.0000009537
vertex 199.736663818 10.0000009537 10.0000009537
endloop
endfacet
facet normal 0.0 0.0 1.0
outer loop
vertex 388.5390625 181.286071777 10.0000009537
vertex 387.947998047 183.609344482 10.0000009537
vertex 378.62210083 190.0 10.0000009537
endloop
endfacet
facet normal -0.0 -0.0 1.0
outer loop
vertex 378.62210083 190.0 10.0000009537
vertex 387.947998047 183.609344482 10.0000009537
vertex 386.821014404 185.725189209 10.0000009537
endloop
endfacet
facet normal -0.0 -0.0 1.0
outer loop
vertex 378.62210083 190.0 10.0000009537
vertex 386.821014404 185.725189209 10.0000009537
vertex 385.222839355 187.512008667 10.0000009537
endloop
endfacet
facet normal 0.0 0.0 1.0
outer loop
vertex 385.222839355 187.512008667 10.0000009537
vertex 383.245300293 188.867126465 10.0000009537
vertex 378.62210083 190.0 10.0000009537
endloop
endfacet
facet normal -0.0 -0.0 1.0
outer loop
vertex 378.62210083 190.0 10.0000009537
vertex 383.245300293 188.867126465 10.0000009537
vertex 381.002105713 189.712661743 10.0000009537
endloop
endfacet
facet normal 0.115701161325 0.99328404665 -0.0
outer loop
vertex 389.473327637 200.0 9.99999997475e-07
vertex 389.473327637 200.0 100.0
vertex 391.771789551 199.732269287 9.99999997475e-07
endloop
endfacet
facet normal 0.115701161325 0.99328404665 0.0
outer loop
vertex 391.771789551 199.732269287 9.99999997475e-07
vertex 389.473327637 200.0 100.0
vertex 391.771789551 199.732269287 100.0
endloop
endfacet
facet normal 0.340908020735 0.94009667635 -0.0
outer loop
vertex 391.771789551 199.732269287 9.99999997475e-07
vertex 391.771789551 199.732269287 100.0
vertex 393.94720459 198.943389893 100.0
endloop
endfacet
facet normal 0.340908020735 0.94009667635 0.0
outer loop
vertex 391.771789551 199.732269287 9.99999997475e-07
vertex 393.94720459 198.943389893 100.0
vertex 393.94720459 198.943389893 9.99999997475e-07
endloop
endfacet
facet normal 0.547860264778 0.836569845676 -0.0
outer loop
vertex 393.94720459 198.943389893 9.99999997475e-07
vertex 393.94720459 198.943389893 100.0
vertex 395.883056641 197.675628662 100.0
endloop
endfacet
facet normal 0.547860264778 0.836569845676 0.0
outer loop
vertex 393.94720459 198.943389893 9.99999997475e-07
vertex 395.883056641 197.675628662 100.0
vertex 395.883056641 197.675628662 9.99999997475e-07
endloop
endfacet
facet normal 0.725476264954 0.688247203827 -0.0
outer loop
vertex 395.883056641 197.675628662 9.99999997475e-07
vertex 395.883056641 197.675628662 100.0
vertex 397.47567749 195.996871948 100.0
endloop
endfacet
facet normal 0.725476264954 0.688247203827 0.0
outer loop
vertex 395.883056641 197.675628662 9.99999997475e-07
vertex 397.47567749 195.996871948 100.0
vertex 397.47567749 195.996871948 9.99999997475e-07
endloop
endfacet
facet normal 0.864245116711 0.503070950508 -0.0
outer loop
vertex 397.47567749 195.996871948 9.99999997475e-07
vertex 397.47567749 195.996871948 100.0
vertex 398.639801025 193.99697876 100.0
endloop
endfacet
facet normal 0.864245116711 0.503070950508 0.0
outer loop
vertex 397.47567749 195.996871948 9.99999997475e-07
vertex 398.639801025 193.99697876 100.0
vertex 398.639801025 193.99697876 9.99999997475e-07
endloop
endfacet
facet normal 0.956736207008 0.290956765413 -0.0
outer loop
vertex 398.639801025 193.99697876 9.99999997475e-07
vertex 398.639801025 193.99697876 100.0
vertex 399.313079834 191.783065796 100.0
endloop
endfacet
facet normal 0.956736207008 0.290956765413 0.0
outer loop
vertex 398.639801025 193.99697876 9.99999997475e-07
vertex 399.313079834 191.783065796 100.0
vertex 399.313079834 191.783065796 9.99999997475e-07
endloop
endfacet
facet normal 0.997996926308 0.063262693584 -0.0
outer loop
vertex 399.313079834 191.783065796 9.99999997475e-07
vertex 399.313079834 191.783065796 100.0
vertex 399.459472656 189.473678589 100.0
endloop
endfacet
facet normal 0.997996926308 0.063262693584 0.0
outer loop
vertex 399.313079834 191.783065796 9.99999997475e-07
vertex 399.459472656 189.473678589 100.0
vertex 399.459472656 189.473678589 9.99999997475e-07
endloop
endfacet
facet normal 0.992967903614 -0.118383735418 0.0
outer loop
vertex 399.459472656 189.473678589 100.0
vertex 396.336120605 163.275939941 100.0
vertex 399.459472656 189.473678589 9.99999997475e-07
endloop
endfacet
facet normal 0.992967903614 -0.118383735418 5.30790231782e-16
outer loop
vertex 399.459472656 189.473678589 9.99999997475e-07
vertex 396.336120605 163.275939941 100.0
vertex 396.336120605 163.275939941 9.99999997475e-07
endloop
endfacet
facet normal 0.968745410442 -0.248057171702 4.8016593126e-16
outer loop
vertex 396.336120605 163.275939941 9.99999997475e-07
vertex 396.336120605 163.275939941 100.0
vertex 389.791534424 137.717269897 100.0
endloop
endfacet
facet normal 0.968745410442 -0.248057171702 4.8016593126e-16
outer loop
vertex 396.336120605 163.275939941 9.99999997475e-07
vertex 389.791534424 137.717269897 100.0
vertex 389.791534424 137.717269897 9.99999997475e-07
endloop
endfacet
facet normal 0.92766481638 -0.373413920403 4.21185783063e-16
outer loop
vertex 389.791534424 137.717269897 9.99999997475e-07
vertex 389.791534424 137.717269897 100.0
vertex 379.939666748 113.242431641 100.0
endloop
endfacet
facet normal 0.92766481638 -0.373413920403 -5.30653105088e-17
outer loop
vertex 389.791534424 137.717269897 9.99999997475e-07
vertex 379.939666748 113.242431641 100.0
vertex 379.939666748 113.242431641 9.99999997475e-07
endloop
endfacet
facet normal 0.870441138744 -0.492272555828 -6.99561400938e-17
outer loop
vertex 379.939666748 113.242431641 9.99999997475e-07
vertex 379.939666748 113.242431641 100.0
vertex 366.951904297 90.27734375 100.0
endloop
endfacet
facet normal 0.870441138744 -0.492272555828 0.0
outer loop
vertex 379.939666748 113.242431641 9.99999997475e-07
vertex 366.951904297 90.27734375 100.0
vertex 366.951904297 90.27734375 9.99999997475e-07
endloop
endfacet
facet normal 0.798070013523 -0.602564692497 0.0
outer loop
vertex 366.951904297 90.27734375 9.99999997475e-07
vertex 366.951904297 90.27734375 100.0
vertex 351.054260254 69.2216415405 100.0
endloop
endfacet
facet normal 0.798070013523 -0.602564692497 0.0
outer loop
vertex 366.951904297 90.27734375 9.99999997475e-07
vertex 351.054260254 69.2216415405 100.0
vertex 351.054260254 69.2216415405 9.99999997475e-07
endloop
endfacet
facet normal 0.711811006069 -0.702371060848 0.0
outer loop
vertex 351.054260254 69.2216415405 9.99999997475e-07
vertex 351.054260254 69.2216415405 100.0
vertex 332.5234375 50.441734314 100.0
endloop
endfacet
facet normal 0.711811006069 -0.702371060848 0.0
outer loop
vertex 351.054260254 69.2216415405 9.99999997475e-07
vertex 332.5234375 50.441734314 100.0
vertex 332.5234375 50.441734314 9.99999997475e-07
endloop
endfacet
facet normal 0.613165080547 -0.789954781532 0.0
outer loop
vertex 332.5234375 50.441734314 9.99999997475e-07
vertex 332.5234375 50.441734314 100.0
vertex 311.68182373 34.2644348145 100.0
endloop
endfacet
facet normal 0.613165080547 -0.789954781532 0.0
outer loop
vertex 332.5234375 50.441734314 9.99999997475e-07
vertex 311.68182373 34.2644348145 100.0
vertex 311.68182373 34.2644348145 9.99999997475e-07
endloop
endfacet
facet normal 0.503848910332 -0.863791823387 0.0
outer loop
vertex 311.68182373 34.2644348145 9.99999997475e-07
vertex 311.68182373 34.2644348145 100.0
vertex 288.892181396 20.9712486267 100.0
endloop
endfacet
facet normal 0.503848910332 -0.863791823387 0.0
outer loop
vertex 311.68182373 34.2644348145 9.99999997475e-07
vertex 288.892181396 20.9712486267 100.0
vertex 288.892181396 20.9712486267 9.99999997475e-07
endloop
endfacet
facet normal 0.38576477766 -0.922597169876 0.0
outer loop
vertex 288.892181396 20.9712486267 9.99999997475e-07
vertex 288.892181396 20.9712486267 100.0
vertex 264.551055908 10.793510437 100.0
endloop
endfacet
facet normal 0.38576477766 -0.922597169876 0.0
outer loop
vertex 288.892181396 20.9712486267 9.99999997475e-07
vertex 264.551055908 10.793510437 100.0
vertex 264.551055908 10.793510437 9.99999997475e-07
endloop
endfacet
facet normal 0.260967612267 -0.965347528458 0.0
outer loop
vertex 264.551055908 10.793510437 9.99999997475e-07
vertex 264.551055908 10.793510437 100.0
vertex 239.082015991 3.90833044052 100.0
endloop
endfacet
facet normal 0.260967612267 -0.965347528458 0.0
outer loop
vertex 264.551055908 10.793510437 9.99999997475e-07
vertex 239.082015991 3.90833044052 100.0
vertex 239.082015991 3.90833044052 9.99999997475e-07
endloop
endfacet
facet normal 0.131629109383 -0.991299033165 0.0
outer loop
vertex 239.082015991 3.90833044052 9.99999997475e-07
vertex 239.082015991 3.90833044052 100.0
vertex 212.92829895 0.435523420572 100.0
endloop
endfacet
facet normal 0.131629109383 -0.991299033165 0.0
outer loop
vertex 239.082015991 3.90833044052 9.99999997475e-07
vertex 212.92829895 0.435523420572 100.0
vertex 212.92829895 0.435523420572 9.99999997475e-07
endloop
endfacet
facet normal 0.0 -1.0 0.0
outer loop
vertex 212.92829895 0.435523420572 9.99999997475e-07
vertex 212.92829895 0.435523420572 100.0
vertex 186.545028687 0.435523420572 100.0
endloop
endfacet
facet normal -0.0 -1.0 0.0
outer loop
vertex 212.92829895 0.435523420572 9.99999997475e-07
vertex 186.545028687 0.435523420572 100.0
vertex 186.545028687 0.435523420572 9.99999997475e-07
endloop
endfacet
facet normal -0.131629109383 -0.991299033165 7.48224833421e-17
outer loop
vertex 186.545028687 0.435523420572 9.99999997475e-07
vertex 186.545028687 0.435523420572 100.0
vertex 160.391311646 3.90833044052 100.0
endloop
endfacet
facet normal -0.131629109383 -0.991299033165 7.48224833421e-17
outer loop
vertex 186.545028687 0.435523420572 9.99999997475e-07
vertex 160.391311646 3.90833044052 100.0
vertex 160.391311646 3.90833044052 9.99999997475e-07
endloop
endfacet
facet normal -0.260967612267 -0.965347528458 1.48342918226e-16
outer loop
vertex 160.391311646 3.90833044052 9.99999997475e-07
vertex 160.391311646 3.90833044052 100.0
vertex 134.922271729 10.793510437 100.0
endloop
endfacet
facet normal -0.260967612267 -0.965347528458 -1.26025360306e-16
outer loop
vertex 160.391311646 3.90833044052 9.99999997475e-07
vertex 134.922271729 10.793510437 100.0
vertex 134.922271729 10.793510437 9.99999997475e-07
endloop
endfacet
facet normal -0.38576477766 -0.922597169876 -4.29359909085e-17
outer loop
vertex 134.922271729 10.793510437 9.99999997475e-07
vertex 134.922271729 10.793510437 100.0
vertex 110.58114624 20.9712486267 100.0
endloop
endfacet
facet normal -0.38576477766 -0.922597169876 2.19281901088e-16
outer loop
vertex 134.922271729 10.793510437 9.99999997475e-07
vertex 110.58114624 20.9712486267 100.0
vertex 110.58114624 20.9712486267 9.99999997475e-07
endloop
endfacet
facet normal -0.503848910332 -0.863791823387 2.86404947584e-16
outer loop
vertex 110.58114624 20.9712486267 9.99999997475e-07
vertex 110.58114624 20.9712486267 100.0
vertex 87.7914886475 34.2644348145 100.0
endloop
endfacet
facet normal -0.503848910332 -0.863791823387 -0.0
outer loop
vertex 110.58114624 20.9712486267 9.99999997475e-07
vertex 87.7914886475 34.2644348145 100.0
vertex 87.7914886475 34.2644348145 9.99999997475e-07
endloop
endfacet
facet normal -0.613165080547 -0.789954781532 0.0
outer loop
vertex 87.7914886475 34.2644348145 9.99999997475e-07
vertex 87.7914886475 34.2644348145 100.0
vertex 66.9498977661 50.441734314 100.0
endloop
endfacet
facet normal -0.613165080547 -0.789954781532 -0.0
outer loop
vertex 87.7914886475 34.2644348145 9.99999997475e-07
vertex 66.9498977661 50.441734314 100.0
vertex 66.9498977661 50.441734314 9.99999997475e-07
endloop
endfacet
facet normal -0.711811006069 -0.702371060848 0.0
outer loop
vertex 66.9498977661 50.441734314 9.99999997475e-07
vertex 66.9498977661 50.441734314 100.0
vertex 48.4190444946 69.2216415405 100.0
endloop
endfacet
facet normal -0.711811006069 -0.702371060848 -0.0
outer loop
vertex 66.9498977661 50.441734314 9.99999997475e-07
vertex 48.4190444946 69.2216415405 100.0
vertex 48.4190444946 69.2216415405 9.99999997475e-07
endloop
endfacet
facet normal -0.798070013523 -0.602564692497 0.0
outer loop
vertex 48.4190444946 69.2216415405 9.99999997475e-07
vertex 48.4190444946 69.2216415405 100.0
vertex 32.5214157104 90.27734375 100.0
endloop
endfacet
facet normal -0.798070013523 -0.602564692497 -0.0
outer loop
vertex 48.4190444946 69.2216415405 9.99999997475e-07
vertex 32.5214157104 90.27734375 100.0
vertex 32.5214157104 90.27734375 9.99999997475e-07
endloop
endfacet
facet normal -0.870441138744 -0.492272555828 0.0
outer loop
vertex 32.5214157104 90.27734375 9.99999997475e-07
vertex 32.5214157104 90.27734375 100.0
vertex 19.5336532593 113.242431641 100.0
endloop
endfacet
facet normal -0.870441138744 -0.492272555828 -0.0
outer loop
vertex 32.5214157104 90.27734375 9.99999997475e-07
vertex 19.5336532593 113.242431641 100.0
vertex 19.5336532593 113.242431641 9.99999997475e-07
endloop
endfacet
facet normal -0.92766481638 -0.373413920403 0.0
outer loop
vertex 19.5336532593 113.242431641 9.99999997475e-07
vertex 19.5336532593 113.242431641 100.0
vertex 9.68177223206 137.717269897 100.0
endloop
endfacet
facet normal -0.92766481638 -0.373413920403 -0.0
outer loop
vertex 19.5336532593 113.242431641 9.99999997475e-07
vertex 9.68177223206 137.717269897 100.0
vertex 9.68177223206 137.717269897 9.99999997475e-07
endloop
endfacet
facet normal -0.968745410442 -0.248057171702 0.0
outer loop
vertex 9.68177223206 137.717269897 9.99999997475e-07
vertex 9.68177223206 137.717269897 100.0
vertex 3.1372115612 163.275939941 100.0
endloop
endfacet
facet normal -0.968745410442 -0.248057171702 -0.0
outer loop
vertex 9.68177223206 137.717269897 9.99999997475e-07
vertex 3.1372115612 163.275939941 100.0
vertex 3.1372115612 163.275939941 9.99999997475e-07
endloop
endfacet
facet normal -0.992967903614 -0.118383735418 0.0
outer loop
vertex 3.1372115612 163.275939941 9.99999997475e-07
vertex 3.1372115612 163.275939941 100.0
vertex 0.0138610200956 189.473678589 100.0
endloop
endfacet
facet normal -0.992967903614 -0.118383735418 -0.0
outer loop
vertex 3.1372115612 163.275939941 9.99999997475e-07
vertex 0.0138610200956 189.473678589 100.0
vertex 0.0138610200956 189.473678589 9.99999997475e-07
endloop
endfacet
facet normal -0.0 0.0 -1.0
outer loop
vertex 389.473327637 200.0 9.99999997475e-07
vertex 3.1372115612 163.275939941 9.99999997475e-07
vertex 10.0000009537 200.0 9.99999997475e-07
endloop
endfacet
facet normal -0.0 0.0 -1.0
outer loop
vertex 10.0000009537 200.0 9.99999997475e-07
vertex 3.1372115612 163.275939941 9.99999997475e-07
vertex 0.0138610200956 189.473678589 9.99999997475e-07
endloop
endfacet
facet normal -0.0 0.0 -1.0
outer loop
vertex 10.0000009537 200.0 9.99999997475e-07
vertex 0.0138610200956 189.473678589 9.99999997475e-07
vertex 0.16025236249 191.783065796 9.99999997475e-07
endloop
endfacet
facet normal -0.0 -0.0 -1.0
outer loop
vertex 391.771789551 199.732269287 9.99999997475e-07
vertex 393.94720459 198.943389893 9.99999997475e-07
vertex 389.473327637 200.0 9.99999997475e-07
endloop
endfacet
facet normal 0.0 0.0 -1.0
outer loop
vertex 389.473327637 200.0 9.99999997475e-07
vertex 393.94720459 198.943389893 9.99999997475e-07
vertex 395.883056641 197.675628662 9.99999997475e-07
endloop
endfacet
facet normal 0.0 0.0 -1.0
outer loop
vertex 389.473327637 200.0 9.99999997475e-07
vertex 395.883056641 197.675628662 9.99999997475e-07
vertex 397.47567749 195.996871948 9.99999997475e-07
endloop
endfacet
facet normal -0.0 -0.0 -1.0
outer loop
vertex 397.47567749 195.996871948 9.99999997475e-07
vertex 398.639801025 193.99697876 9.99999997475e-07
vertex 389.473327637 200.0 9.99999997475e-07
endloop
endfacet
facet normal 0.0 0.0 -1.0
outer loop
vertex 389.473327637 200.0 9.99999997475e-07
vertex 398.639801025 193.99697876 9.99999997475e-07
vertex 399.313079834 191.783065796 9.99999997475e-07
endloop
endfacet
facet normal 0.0 0.0 -1.0
outer loop
vertex 389.473327637 200.0 9.99999997475e-07
vertex 399.313079834 191.783065796 9.99999997475e-07
vertex 399.459472656 189.473678589 9.99999997475e-07
endloop
endfacet
facet normal -0.0 0.0 -1.0
outer loop
vertex 399.459472656 189.473678589 9.99999997475e-07
vertex 396.336120605 163.275939941 9.99999997475e-07
vertex 389.473327637 200.0 9.99999997475e-07
endloop
endfacet
facet normal -0.0 -0.0 -1.0
outer loop
vertex 389.473327637 200.0 9.99999997475e-07
vertex 396.336120605 163.275939941 9.99999997475e-07
vertex 3.1372115612 163.275939941 9.99999997475e-07
endloop
endfacet
facet normal 0.0 -0.0 -1.0
outer loop
vertex 3.1372115612 163.275939941 9.99999997475e-07
vertex 396.336120605 163.275939941 9.99999997475e-07
vertex 9.68177223206 137.717269897 9.99999997475e-07
endloop
endfacet
facet normal 0.0 -0.0 -1.0
outer loop
vertex 9.68177223206 137.717269897 9.99999997475e-07
vertex 396.336120605 163.275939941 9.99999997475e-07
vertex 389.791534424 137.717269897 9.99999997475e-07
endloop
endfacet
facet normal 0.0 -0.0 -1.0
outer loop
vertex 9.68177223206 137.717269897 9.99999997475e-07
vertex 389.791534424 137.717269897 9.99999997475e-07
vertex 19.5336532593 113.242431641 9.99999997475e-07
endloop
endfacet
facet normal 0.0 -0.0 -1.0
outer loop
vertex 19.5336532593 113.242431641 9.99999997475e-07
vertex 389.791534424 137.717269897 9.99999997475e-07
vertex 379.939666748 113.242431641 9.99999997475e-07
endloop
endfacet
facet normal 0.0 -0.0 -1.0
outer loop
vertex 19.5336532593 113.242431641 9.99999997475e-07
vertex 379.939666748 113.242431641 9.99999997475e-07
vertex 32.5214157104 90.27734375 9.99999997475e-07
endloop
endfacet
facet normal 0.0 -0.0 -1.0
outer loop
vertex 32.5214157104 90.27734375 9.99999997475e-07
vertex 379.939666748 113.242431641 9.99999997475e-07
vertex 366.951904297 90.27734375 9.99999997475e-07
endloop
endfacet
facet normal 0.0 -0.0 -1.0
outer loop
vertex 32.5214157104 90.27734375 9.99999997475e-07
vertex 366.951904297 90.27734375 9.99999997475e-07
vertex 48.4190444946 69.2216415405 9.99999997475e-07
endloop
endfacet
facet normal 0.0 -0.0 -1.0
outer loop
vertex 48.4190444946 69.2216415405 9.99999997475e-07
vertex 366.951904297 90.27734375 9.99999997475e-07
vertex 351.054260254 69.2216415405 9.99999997475e-07
endloop
endfacet
facet normal 0.0 -0.0 -1.0
outer loop
vertex 48.4190444946 69.2216415405 9.99999997475e-07
vertex 351.054260254 69.2216415405 9.99999997475e-07
vertex 66.9498977661 50.441734314 9.99999997475e-07
endloop
endfacet
facet normal 0.0 -0.0 -1.0
outer loop
vertex 66.9498977661 50.441734314 9.99999997475e-07
vertex 351.054260254 69.2216415405 9.99999997475e-07
vertex 332.5234375 50.441734314 9.99999997475e-07
endloop
endfacet
facet normal 0.0 -0.0 -1.0
outer loop
vertex 66.9498977661 50.441734314 9.99999997475e-07
vertex 332.5234375 50.441734314 9.99999997475e-07
vertex 87.7914886475 34.2644348145 9.99999997475e-07
endloop
endfacet
facet normal 0.0 -0.0 -1.0
outer loop
vertex 87.7914886475 34.2644348145 9.99999997475e-07
vertex 332.5234375 50.441734314 9.99999997475e-07
vertex 311.68182373 34.2644348145 9.99999997475e-07
endloop
endfacet
facet normal 0.0 -0.0 -1.0
outer loop
vertex 87.7914886475 34.2644348145 9.99999997475e-07
vertex 311.68182373 34.2644348145 9.99999997475e-07
vertex 110.58114624 20.9712486267 9.99999997475e-07
endloop
endfacet
facet normal 0.0 -0.0 -1.0
outer loop
vertex 110.58114624 20.9712486267 9.99999997475e-07
vertex 311.68182373 34.2644348145 9.99999997475e-07
vertex 288.892181396 20.9712486267 9.99999997475e-07
endloop
endfacet
facet normal 0.0 -0.0 -1.0
outer loop
vertex 110.58114624 20.9712486267 9.99999997475e-07
vertex 288.892181396 20.9712486267 9.99999997475e-07
vertex 134.922271729 10.793510437 9.99999997475e-07
endloop
endfacet
facet normal 0.0 -0.0 -1.0
outer loop
vertex 134.922271729 10.793510437 9.99999997475e-07
vertex 288.892181396 20.9712486267 9.99999997475e-07
vertex 264.551055908 10.793510437 9.99999997475e-07
endloop
endfacet
facet normal 0.0 -0.0 -1.0
outer loop
vertex 134.922271729 10.793510437 9.99999997475e-07
vertex 264.551055908 10.793510437 9.99999997475e-07
vertex 160.391311646 3.90833044052 9.99999997475e-07
endloop
endfacet
facet normal 0.0 -0.0 -1.0
outer loop
vertex 160.391311646 3.90833044052 9.99999997475e-07
vertex 264.551055908 10.793510437 9.99999997475e-07
vertex 239.082015991 3.90833044052 9.99999997475e-07
endloop
endfacet
facet normal 0.0 -0.0 -1.0
outer loop
vertex 160.391311646 3.90833044052 9.99999997475e-07
vertex 239.082015991 3.90833044052 9.99999997475e-07
vertex 186.545028687 0.435523420572 9.99999997475e-07
endloop
endfacet
facet normal 0.0 -0.0 -1.0
outer loop
vertex 186.545028687 0.435523420572 9.99999997475e-07
vertex 239.082015991 3.90833044052 9.99999997475e-07
vertex 212.92829895 0.435523420572 9.99999997475e-07
endloop
endfacet
facet normal 0.0 0.0 -1.0
outer loop
vertex 0.16025236249 191.783065796 9.99999997475e-07
vertex 0.83353304863 193.99697876 9.99999997475e-07
vertex 10.0000009537 200.0 9.99999997475e-07
endloop
endfacet
facet normal -0.0 0.0 -1.0
outer loop
vertex 10.0000009537 200.0 9.99999997475e-07
vertex 0.83353304863 193.99697876 9.99999997475e-07
vertex 1.99765098095 195.996871948 9.99999997475e-07
endloop
endfacet
facet normal -0.0 0.0 -1.0
outer loop
vertex 10.0000009537 200.0 9.99999997475e-07
vertex 1.99765098095 195.996871948 9.99999997475e-07
vertex 3.59027099609 197.675628662 9.99999997475e-07
endloop
endfacet
facet normal 0.0 0.0 -1.0
outer loop
vertex 3.59027099609 197.675628662 9.99999997475e-07
vertex 5.52611303329 198.943389893 9.99999997475e-07
vertex 10.0000009537 200.0 9.99999997475e-07
endloop
endfacet
facet normal -0.0 0.0 -1.0
outer loop
vertex 10.0000009537 200.0 9.99999997475e-07
vertex 5.52611303329 198.943389893 9.99999997475e-07
vertex 7.70151853561 199.732269287 9.99999997475e-07
endloop
endfacet
